<?xml version="1.0" encoding="UTF-8"?>
<svg width="664px" height="428px" viewBox="0 0 664 428" version="1.1" xmlns="http://www.w3.org/2000/svg" xmlns:xlink="http://www.w3.org/1999/xlink">
    <!-- Generator: Sketch 48.1 (47250) - http://www.bohemiancoding.com/sketch -->
    <title>BRAND</title>
    <desc>Created with Sketch.</desc>
    <defs></defs>
    <g id="base" stroke="none" stroke-width="1" fill="none" fill-rule="evenodd" transform="translate(-24.000000, -11.000000)">
        <g id="BRAND" transform="translate(24.000000, 11.000000)" fill="#FFFFFF">
            <path d="M212.5,279.5 C166.5,279.5 136,273 109.5,263 L102,171.5 L117.5,171.5 L143,229.5 C162,253 182.5,266.5 215.5,266.5 C257.5,266.5 277.5,245.5 277.5,213 C277.5,171.5 240,158.5 197.5,143.5 C148.5,126.5 107.5,107.5 107.5,53.5 C107.5,-5 155.5,-46 221.5,-46 C250,-46 276,-39 294,-34 L317.5,-41.5 L319,56 L305,56 L261,-25 C251.5,-29.5 240,-33.5 219.5,-33.5 C186,-33.5 164.5,-14 164.5,11 C164.5,45 197.5,56 238,70 C291.5,87.5 334,109.5 334,171 C334,230.5 284.5,279.5 212.5,279.5 Z" id="S" transform="translate(218.000000, 116.750000) rotate(-90.000000) translate(-218.000000, -116.750000) "></path>
            <path d="M38.8,236.5 C23.2,236.5 13,223.9 13,211 C13,198.1 23.2,185.8 38.8,185.8 C55,185.8 64.9,198.1 64.9,211 C64.9,223.9 55,236.5 38.8,236.5 Z M1.6,388 L2.5,382.9 L6.7,382.6 C15.4,382 18.7,381.1 18.7,377.5 L18.7,298.9 C18.7,280.3 16.3,277.9 6.1,274.9 L0.1,273.4 L0.4,269.5 L62.2,252.1 L62.2,377.8 C62.2,380.5 64,381.1 76.6,382.6 L79.3,382.9 L80.2,388 L1.6,388 Z M84.9999996,388 L85.8999996,382.9 L90.0999996,382.6 C98.7999996,382 102.1,381.1 102.1,377.5 L102.1,298.9 C102.1,280.3 99.6999996,277.9 89.4999996,274.9 L83.4999996,273.4 L83.7999996,269.5 L146.2,252.1 L145.6,278.2 L146.2,278.2 C160.6,265 178.6,251.8 196.9,251.8 C207.1,251.8 214.9,255.7 221.5,262.3 C225.7,266.8 228.4,271.9 229.9,278.5 L231.4,278.8 C246.4,264.4 264.4,251.8 283.3,251.8 C293.2,251.8 301,255.7 307.9,262.6 C315.1,269.8 318.1,283.6 318.1,306.4 L318.1,377.5 C318.1,379.6 318.7,380.8 332.5,382.6 L335.8,382.9 L336.7,388 L259,388 L259.9,382.9 L265,382.6 C274.9,382 274.6,379.9 274.6,377.5 L274.6,307.6 C274.6,285.1 265.3,279.1 250.6,279.1 C242.5,279.1 234.4,282.1 232,286.9 L232,378.1 C232,380.5 233.2,381.1 244.3,382.6 L248.2,382.9 L249.1,388 L172.6,388 L173.5,382.9 L178.6,382.6 C187.3,382 188.5,379.9 188.5,377.5 L188.5,307.6 C188.5,285.1 178.9,279.1 164.2,279.1 C156.7,279.1 150.7,281.8 145.6,284.5 L145.6,377.8 C145.6,380.5 146.5,381.7 157.6,382.6 L161.8,382.9 L162.7,388 L84.9999996,388 Z M336.299999,388 L337.139999,383.24 L341.059999,382.96 C349.179999,382.4 352.259999,381.56 352.259999,378.2 L352.259999,304.84 C352.259999,287.48 350.019999,285.24 340.499999,282.44 L334.899999,281.04 L335.179999,277.4 L393.419999,261.16 L392.859999,285.52 L393.419999,285.52 C406.859999,273.2 423.659999,260.88 440.739999,260.88 C450.259999,260.88 457.539999,264.52 463.699999,270.68 C467.619999,274.88 470.139999,279.64 471.539999,285.8 L472.939999,286.08 C486.939999,272.64 503.739999,260.88 521.379999,260.88 C530.619999,260.88 537.899999,264.52 544.339999,270.96 C551.059999,277.68 553.859999,290.56 553.859999,311.84 L553.859999,378.2 C553.859999,380.16 554.419999,381.28 567.299999,382.96 L570.379999,383.24 L571.219999,388 L498.699999,388 L499.539999,383.24 L504.299999,382.96 C513.539999,382.4 513.259999,380.44 513.259999,378.2 L513.259999,312.96 C513.259999,291.96 504.579999,286.36 490.859999,286.36 C483.299999,286.36 475.739999,289.16 473.499999,293.64 L473.499999,378.76 C473.499999,381 474.619999,381.56 484.979999,382.96 L488.619999,383.24 L489.459999,388 L418.059999,388 L418.899999,383.24 L423.659999,382.96 C431.779999,382.4 432.899999,380.44 432.899999,378.2 L432.899999,312.96 C432.899999,291.96 423.939999,286.36 410.219999,286.36 C403.219999,286.36 397.619999,288.88 392.859999,291.4 L392.859999,378.48 C392.859999,381 393.699999,382.12 404.059999,382.96 L407.979999,383.24 L408.819999,388 L336.299999,388 Z" id="imm"></path>
            <path d="M578.9,390.46 C556.33,390.46 538.94,373.07 538.94,348.835 C538.94,322.75 558.92,303.14 584.82,303.14 C606.65,303.14 617.935,317.015 617.935,330.89 C617.935,332.74 617.75,334.775 617.38,336.44 C617.38,336.44 574.645,335.885 567.43,335.515 C567.245,337.18 567.245,340.14 567.245,341.805 C567.43,361.23 577.42,374.735 593.7,374.735 C603.875,374.735 611.46,369.74 616.455,360.49 L618.675,361.6 C612.2,380.1 599.25,390.46 578.9,390.46 Z M567.43,332.185 L593.145,332 C593.33,319.79 590.74,307.765 582.23,307.765 C575.015,307.765 568.725,316.275 567.43,332.185 Z M622.745,387.5 L623.3,384.355 L625.705,384.17 C631.07,383.8 633.105,383.245 633.105,381.025 L633.105,332.555 C633.105,321.085 631.625,319.605 625.335,317.755 L621.635,316.83 L621.82,314.425 L660.3,303.695 L659.93,331.075 L660.485,331.075 C666.405,313.685 673.99,303.51 685.46,303.51 C693.97,303.51 700.26,308.69 700.26,318.31 C700.26,324.6 694.895,331.26 687.865,331.26 C679.725,331.26 675.655,325.71 673.62,319.79 C668.44,321.085 664,327.375 659.93,340.695 L659.93,381.025 C659.93,382.69 661.41,383.615 669.18,384.17 L672.51,384.355 L673.065,387.5 L622.745,387.5 Z" id="er" transform="translate(619.600000, 346.800000) rotate(-270.000000) translate(-619.600000, -346.800000) "></path>
        </g>
    </g>
</svg>