<?xml version="1.0" encoding="UTF-8"?>
<svg width="1022px" height="764px" viewBox="0 0 1022 764" version="1.1" xmlns="http://www.w3.org/2000/svg" xmlns:xlink="http://www.w3.org/1999/xlink">
    <!-- Generator: Sketch 48.1 (47250) - http://www.bohemiancoding.com/sketch -->
    <title>sig</title>
    <desc>Created with Sketch.</desc>
    <defs></defs>
    <g id="Home" stroke="none" stroke-width="1" fill="none" fill-rule="evenodd" transform="translate(-157.000000, -88.000000)" >
        <g id="sig" transform="translate(157.000000, 88.000000)" fill="#ffffff">
            <g id="Layer_1_xA0_Image_1_">
                <g id="Group">
                    <path d="M317.366352,429.719874 C324.356447,428.193481 330.623428,425.22103 336.408333,420.963197 C339.943553,418.392429 344.362579,417.026709 348.46022,415.259306 C353.039937,413.170557 357.7,411.081809 362.360063,409.073396 C367.020126,407.064984 371.680189,405.056572 376.340252,403.128496 C378.027516,402.405468 379.71478,401.68244 381.48239,400.959411 C381.964465,400.718402 382.446541,400.397056 382.928616,400.397056 C391.364937,400.557729 400.122642,399.8347 405.987893,407.868349 C406.63066,408.832387 407.112736,410.037434 407.273428,411.162145 C407.835849,415.419979 408.478616,419.597476 406.469969,423.694637 C406.228931,424.256993 406.389623,425.22103 406.63066,425.944059 C407.675157,428.675499 406.871698,431.567613 404.541667,433.01367 C400.363679,435.664774 398.274686,439.681598 396.828459,444.180442 C396.507075,445.305152 395.783962,446.429863 395.703616,447.554574 C395.62327,448.839958 395.62327,450.527024 396.346384,451.330389 C396.828459,451.892744 398.917453,451.732072 399.801258,451.169716 C409.362421,444.823134 418.682547,438.155205 428.243711,431.969295 C442.625629,422.650263 457.248585,413.652576 471.791195,404.574553 C472.755346,403.931861 474.040881,403.771188 475.165723,403.289169 C479.183019,401.361094 483.843082,400.477392 486.655189,396.380231 C486.896226,395.978549 487.458648,395.657203 487.940723,395.49653 C493.645283,393.327445 499.269497,391.238696 504.974057,389.149947 C505.69717,388.908938 507.06305,388.989274 507.143396,388.587592 C508.268239,385.052787 511.40173,385.454469 513.972799,384.731441 C520.23978,383.044374 526.426415,381.035962 532.773742,379.670242 C537.594497,378.706204 542.656289,377.742166 547.477044,378.384858 C552.86022,379.107886 557.841667,382.080336 561.216195,386.498843 C565.072799,391.479706 569.331132,393.648791 575.758805,392.363407 C584.596855,390.596004 593.595597,389.631966 602.513994,388.105573 C606.290252,387.462881 610.066509,386.33817 613.842767,385.615142 C623.80566,383.767403 633.688208,381.437645 643.731447,380.39327 C652.248113,379.509569 660.925472,379.991588 669.522484,380.071924 C674.744969,380.152261 679.887107,380.473607 685.109591,380.875289 C689.046541,381.116299 692.983491,381.517981 696.840094,381.919664 C705.838836,382.803365 714.837579,383.687066 723.836321,384.811777 C729.621226,385.534805 735.406132,386.498843 741.191038,387.382545 C749.064937,388.587592 756.938836,390.033649 764.812736,390.91735 C773.409748,391.801052 781.926415,393.247108 790.684119,392.28307 C794.21934,391.881388 797.995597,393.407781 801.691509,394.050473 C802.575314,394.211146 803.539465,394.371819 804.503616,394.371819 C806.351572,394.291483 807.797799,392.684753 810.288522,394.452156 C811.89544,395.657203 815.189623,394.291483 817.760692,394.291483 C824.831132,394.291483 831.901572,394.371819 838.972013,394.371819 C843.632075,394.371819 848.292138,394.612829 852.952201,394.211146 C857.210535,393.809464 861.468868,392.765089 865.727201,392.042061 C866.611006,391.881388 867.575157,391.801052 868.458962,391.720715 C873.761792,391.238696 879.064623,390.676341 884.447799,390.274658 C887.581289,390.033649 890.795126,390.113985 893.928616,390.194322 C898.749371,390.354995 903.48978,390.676341 908.230189,390.997687 C910.319182,391.15836 912.488522,391.319033 914.577516,391.881388 C922.612107,394.211146 930.646698,396.701577 938.681289,399.272345 C940.529245,399.8347 939.725786,401.200421 941.493396,401.923449 C948.644182,405.056572 952.179403,410.439117 958.52673,413.973922 C963.42783,416.625026 968.328931,419.838486 973.471069,421.846898 C977.327673,423.373291 985.522956,425.542376 989.540252,425.140694 C996.45,424.417666 1003.84182,425.542376 1009.54638,419.597476 C1011.31399,417.749737 1014.76887,415.741325 1016.77752,414.054259 C1019.34858,411.885174 1019.50928,410.680126 1021.43758,412.126183 C1022.32138,413.652576 1016.85786,419.758149 1013.48333,422.971609 C1010.99261,425.301367 1010.83192,427.631125 1007.37704,427.631125 C1006.73428,427.631125 1002.95802,429.318191 1002.55629,429.960883 C1000.06557,432.370978 996.289308,433.01367 992.030975,434.138381 C985.522956,435.98612 980.461164,436.066456 974.756604,433.335016 C972.587264,432.290641 969.775157,432.531651 967.525472,431.567613 C959.812264,428.43449 952.259748,424.980021 945.75173,419.436803 C942.537893,416.705363 939.163365,414.054259 935.628145,411.644164 C934.262264,410.680126 932.414308,410.037434 930.80739,410.037434 C926.227673,409.876761 922.130031,408.591377 918.514465,405.940273 C918.193082,405.699264 917.871698,405.377918 917.469969,405.297581 C912.247484,404.41388 907.105346,402.887487 901.882862,402.80715 C895.294497,402.646477 888.625786,403.690852 881.957075,404.172871 C881.07327,404.253207 880.028774,404.41388 879.225314,404.012198 C875.127673,402.084122 871.351415,403.690852 867.334119,404.574553 C864.200629,405.217245 860.826101,404.895899 857.612264,404.895899 C856.567767,404.895899 847.890409,407.145321 843.953459,407.547003 C843.310692,407.62734 836.159906,408.511041 836.159906,408.511041 C832.303302,407.788013 820.171069,406.904311 816.234119,406.984648 C809.244025,407.225657 803.619811,407.948686 796.629717,407.547003 C791.728616,407.225657 785.461635,406.823975 780.721226,405.7796 C777.587736,405.136909 774.534591,404.735226 771.320755,404.815563 C766.5,404.976236 761.759591,402.646477 757.019182,401.923449 C749.145283,400.718402 741.753459,397.022923 733.47783,397.986961 C732.11195,398.147634 730.746069,397.344269 729.299843,397.022923 C726.809119,396.380231 724.398742,394.452156 721.827673,396.86225 C721.666981,397.022923 721.345597,397.10326 721.10456,397.10326 C717.810377,396.380231 714.516195,395.657203 711.141667,394.934175 C709.615094,394.612829 708.088522,393.970137 706.481604,393.809464 C701.580503,393.247108 696.679403,392.765089 691.778302,392.28307 C689.930346,392.122397 688.08239,392.28307 686.234434,392.202734 C684.868553,392.122397 683.261635,392.52408 682.297484,391.881388 C678.360535,389.31062 674.102201,390.435331 670.245597,391.078023 C665.424843,391.801052 661.005818,390.91735 656.345755,390.194322 C651.92673,389.471293 647.347013,389.230284 642.847642,389.069611 C641.642453,388.989274 640.035535,389.712303 639.312421,390.596004 C637.384119,393.006099 634.81305,393.568454 632.161635,393.568454 C627.501572,393.488118 622.680818,395.978549 618.020755,393.166772 C617.699371,392.925762 616.574528,393.568454 616.172799,394.050473 C613.521384,397.344269 610.869969,398.147634 607.334748,396.058885 C605.165409,394.773502 604.120912,395.094848 602.835377,397.183596 C602.272956,398.147634 600.585692,399.433018 599.782233,399.272345 C596.809434,398.46898 594.399057,400.718402 591.908333,400.638065 C584.757547,400.557729 579.213679,406.502629 572.223585,406.422292 C568.527673,406.422292 563.064151,408.430705 559.609277,407.225657 C556.79717,406.261619 552.538836,402.646477 550.931918,400.156046 C547.15566,394.291483 544.825629,389.712303 537.915881,390.91735 C530.925786,392.122397 523.614308,391.881388 516.945597,395.175184 C514.053145,396.621241 510.59827,396.942587 507.384434,397.826288 C506.661321,398.067298 505.456132,398.067298 505.215094,398.549317 C503.367138,402.405468 499.590881,402.646477 496.216352,403.851525 C494.609434,404.41388 493.163208,405.458254 491.636635,406.261619 C488.663836,407.788013 485.691038,409.314406 482.798585,410.921136 C479.74544,412.608202 476.772642,414.295268 473.880189,416.062671 C471.389465,417.589064 469.059434,419.195794 465.765252,418.713775 C463.515566,418.392429 461.828302,419.51714 461.265881,422.24858 C461.024843,423.453628 459.9,424.739012 458.855503,425.542376 C454.516824,428.755836 450.017453,431.808623 445.518082,434.781073 C438.608333,439.279916 431.698585,443.698423 424.788836,448.197266 C423.663994,448.920294 422.619497,449.803996 421.575,450.527024 C420.128774,451.491062 418.682547,452.856782 417.155975,453.097792 C414.263522,453.579811 412.174528,454.463512 411.210377,457.516299 C410.96934,458.4 409.282075,458.801682 408.39827,459.524711 C406.791352,460.649422 405.26478,461.854469 403.657862,463.059516 C403.336478,463.300526 403.175786,463.862881 402.854403,463.943218 C397.872956,465.630284 392.891509,467.478023 387.749371,468.763407 C385.338994,469.325762 379.473742,464.103891 379.393396,461.533123 C379.31305,456.79327 379.393396,452.133754 382.044811,447.634911 C385.740723,441.368665 389.838365,435.263091 390.882862,427.791798 C391.284591,424.980021 392.891509,422.328917 393.293239,419.51714 C394.016352,414.375605 389.918711,411.724501 385.01761,413.33123 C380.759277,414.696951 376.17956,415.17897 371.760535,416.143007 C370.796384,416.384017 369.591195,416.384017 368.868082,416.946372 C366.297013,418.954784 364.127673,421.525552 361.315566,423.051945 C359.226572,424.176656 356.494811,424.09632 354.084434,424.658675 C352.477516,425.060358 350.790252,425.622713 349.344025,426.345741 C345.808805,428.193481 342.514623,430.442902 338.979403,432.210305 C335.765566,433.817035 332.873113,436.387802 329.819969,438.556887 C328.132704,439.761935 323.633333,442.332702 320.821226,443.53775 C320.499843,443.618086 314.554245,445.787171 312.224214,446.831546 C309.653145,447.956257 307.162421,449.000631 304.671698,450.286015 C301.939937,451.732072 299.12783,453.258465 296.556761,454.945531 C289.727358,459.364038 282.978302,463.782545 276.229245,468.442061 C270.363994,472.539222 264.659434,476.797056 258.874528,481.05489 C257.66934,481.938591 250.679245,489.008202 248.991981,490.373922 C246.983333,491.980652 246.902987,494.792429 248.349214,497.363197 C251.161321,502.344059 254.053774,507.324921 256.383805,512.546793 C259.677987,519.93775 262.329403,527.569716 265.382547,535.121346 C266.587736,538.174132 268.355346,541.066246 269.399843,544.119033 C272.131604,552.152681 276.389937,559.623975 277.11305,568.300315 C277.354088,571.112093 278.961006,573.763197 279.443082,576.574974 C279.764465,578.824395 279.28239,581.154154 279.28239,583.483912 C279.28239,584.126604 279.202044,584.929968 279.603774,585.331651 C282.656918,589.187802 282.174843,593.927655 282.576572,598.346162 C283.058648,603.246688 283.21934,608.147213 283.540723,613.047739 C283.540723,613.610095 283.540723,614.092114 283.460377,614.654469 C282.576572,619.233649 281.532075,623.812829 280.808962,628.472345 C280.085849,632.810515 279.764465,637.229022 279.202044,641.567192 C279.041352,643.013249 278.719969,644.459306 278.157547,645.74469 C276.550629,649.118822 274.702673,652.412618 275.988208,656.429443 C276.068553,656.750789 276.068553,657.473817 275.907862,657.554154 C271.649528,660.446267 272.935063,666.55184 268.917767,669.684963 C267.953616,670.488328 268.435692,673.059096 268.275,674.906835 C268.194654,675.790536 268.114308,677.397266 267.953616,677.397266 C264.257704,677.477603 265.944969,680.128707 265.703931,681.896109 C265.543239,683.02082 265.141509,684.225868 264.579088,685.270242 C263.454245,687.358991 262.168711,689.367403 260.722484,691.215142 C259.919025,692.259516 258.713836,693.303891 257.508648,693.5449 C254.696541,694.107256 253.33066,695.472976 253.571698,698.284753 C253.893082,702.622923 249.875786,707.684122 245.537107,708.005468 C241.359119,708.326814 240.394969,711.700946 239.591509,714.59306 C238.78805,717.485174 237.42217,719.332913 234.690409,720.296951 C234.208333,720.457624 233.565566,720.698633 233.404874,721.019979 C230.753459,727.687907 224.888208,730.419348 218.862264,732.990116 C218.380189,733.231125 217.737421,733.311462 217.416038,733.713144 C214.282547,737.970978 208.979717,738.935016 204.882075,741.666456 C204.319654,742.068139 203.676887,742.309148 203.275157,742.791167 C197.249214,749.619769 188.732547,752.672555 181.180031,757.091062 C176.037893,760.063512 169.61022,760.947213 163.664623,762.232597 C159.566981,763.116299 155.228302,763.839327 151.050314,763.437645 C143.256761,762.714616 135.302516,763.517981 127.830346,760.625868 C125.018239,759.581493 122.04544,758.697792 119.072642,758.0551 C113.769811,756.850053 107.342138,752.029863 104.449686,748.254048 C100.352044,742.95184 97.0578616,741.264774 93.8440252,734.998528 C89.6660377,731.785068 88.2198113,723.51041 88.1394654,718.127865 C87.8180818,703.104942 87.8180818,692.580862 91.5943396,677.959621 C92.5584906,674.10347 94.4064465,670.488328 95.4509434,666.712513 C96.736478,662.294006 97.4595912,657.795163 98.7451258,653.376656 C99.7092767,650.08286 101.155503,646.949737 102.360692,643.736278 C103.405189,641.004837 104.530031,638.353733 105.654874,635.622292 C106.538679,633.533544 107.261792,631.364458 108.386635,629.436383 C112.403931,622.447108 116.260535,615.297161 120.759906,608.548896 C126.785849,599.551209 133.213522,590.955205 139.641195,582.198528 C143.578145,576.815983 147.434748,571.433438 151.693082,566.291903 C154.264151,563.15878 157.477987,560.668349 160.37044,557.776236 C161.093553,557.053207 161.575629,556.089169 162.218396,555.205468 C162.941509,554.080757 163.503931,552.554364 164.548428,551.992008 C171.458176,548.29653 174.591667,540.825237 180.456918,536.085384 C184.313522,532.871924 188.08978,529.417455 191.705346,525.88265 C195.481604,522.187171 198.856132,517.929338 202.712736,514.314196 C207.613836,509.815352 212.997013,505.878864 217.898113,501.460358 C222.47783,497.363197 226.896855,493.105363 230.994497,488.606519 C232.922799,486.517771 231.155189,481.938591 228.262736,478.564458 C224.325786,474.065615 220.790566,469.245426 220.549528,462.898843 C220.549528,462.336488 220.228145,461.533123 219.826415,461.211777 C214.603931,457.435962 211.711478,451.892744 212.273899,446.028181 C212.514937,443.859096 211.149057,443.377077 209.70283,443.216404 C206.56934,442.734385 204.641038,441.93102 205.926572,437.994532 C206.488994,436.387802 205.605189,434.299054 205.444497,432.451314 L205.524843,432.370978 C210.345597,432.933333 212.595283,435.102419 213.077358,440.002944 C213.398742,442.814721 214.362893,444.582124 217.416038,445.385489 C221.192296,446.429863 222.47783,450.205678 224.084748,453.258465 C225.772013,456.391588 226.655818,459.926393 228.423428,462.97918 C231.476572,467.960042 235.011792,472.539222 238.225629,477.439748 C239.912893,480.010515 241.680503,480.572871 244.090881,478.644795 C245.617453,477.439748 247.144025,476.154364 248.670597,474.86898 C249.313365,474.386961 249.875786,473.824606 250.518553,473.342587 C255.258962,469.566772 260.883176,467.31735 265.302201,462.73817 C268.67673,459.283701 273.818868,457.516299 278.077201,454.945531 C279.28239,454.222503 280.326887,453.178128 281.45173,452.21409 C282.978302,450.928707 284.263836,449.402313 285.951101,448.438275 C290.932547,445.546162 296.155031,442.895058 301.136478,440.002944 C306.519654,436.869821 311.742138,433.415352 317.044969,430.121556 L317.366352,429.719874 L317.366352,429.719874 Z M118.91195,629.838065 C117.706761,631.846477 114.412579,640.040799 113.528774,641.16551 C109.752516,646.226709 112.484277,653.376656 108.065252,658.357518 C107.743868,658.759201 108.788365,660.044585 108.708019,660.928286 C108.627673,663.097371 108.949057,665.587802 108.065252,667.435542 C105.092453,673.139432 104.288994,679.405678 103.646226,685.511251 C103.244497,689.769085 103.806918,694.026919 102.60173,698.365089 C101.79827,701.176866 101.79827,704.792008 104.771069,707.202103 C105.413836,707.764458 105.815566,708.808833 105.895912,709.612198 C106.377987,714.673396 106.217296,719.814932 109.591824,724.153102 C114.653616,728.812618 112.564623,730.098002 115.135692,732.347424 C115.939151,733.070452 117.14434,733.391798 117.706761,734.275499 C127.589308,737.00694 132.249371,742.469821 134.338365,742.791167 C137.070126,745.522608 141.167767,747.932702 150.166509,751.387171 C157.960063,752.752892 174.029245,751.467508 179.091038,747.611356 C182.78695,744.799579 186.884591,742.550158 190.901887,740.2204 C194.999528,737.729968 199.579245,735.882229 203.275157,732.990116 C214.844969,723.831756 226.736164,715.075079 236.940094,704.06898 C244.010535,696.437014 249.393711,687.680336 255.5,679.486015 C259.03522,674.665825 261.445597,668.720925 263.454245,663.017035 C266.828774,653.537329 271.247799,644.459306 271.488836,633.935226 C271.569182,628.231335 273.417138,622.527445 274.140252,616.823554 C274.461635,614.17245 274.220597,611.521346 274.220597,608.870242 C274.220597,599.872555 274.300943,590.714196 271.970912,581.957518 C270.04261,574.727234 267.391195,567.73796 265.061164,560.588013 C264.659434,559.463302 264.579088,558.177918 264.016667,557.133544 C261.124214,551.750999 262.731132,545.08307 259.115566,539.941535 C258.794182,539.459516 259.03522,538.656151 258.874528,538.01346 C258.472799,536.40673 258.312107,534.558991 257.428302,533.353943 C251.723742,525.561304 246.340566,517.688328 243.367767,508.369295 C242.564308,505.878864 241.037736,503.549106 239.671855,501.299685 C237.984591,498.487907 236.859748,498.407571 234.288679,500.576656 C232.038994,502.504732 229.789308,504.352471 227.619969,506.360883 C225.129245,508.610305 222.638522,510.77939 220.228145,513.109148 C219.746069,513.591167 216.210849,516.72429 215.648428,517.206309 C211.47044,520.901788 207.533491,524.757939 203.516195,528.61409 C202.471698,529.578128 201.507547,530.702839 200.46305,531.666877 C197.249214,534.558991 193.633648,537.210095 190.821541,540.423554 C188.009434,543.637014 185.438365,546.93081 181.180031,548.537539 C179.733805,549.099895 178.769654,551.108307 177.644811,552.554364 C176.118239,554.562776 175.234434,557.695899 173.225786,558.5796 C168.324686,560.748686 166.878459,565.809884 163.503931,569.10368 C158.924214,573.68286 154.987264,579.145741 150.246855,583.724921 C149.202358,584.688959 148.559591,586.054679 147.756132,587.259727 C143.899528,592.883281 140.283962,598.587171 136.186321,603.969716 C134.659748,605.978128 131.927987,606.942166 132.972484,610.316299 C133.133176,610.878654 132.249371,611.842692 131.68695,612.56572 C129.356918,615.859516 126.223428,618.912303 124.777201,622.607781 C123.330975,625.660568 121.483019,627.829653 118.91195,629.838065 L118.91195,629.838065 L118.91195,629.838065 Z" id="Shape"></path>
                    <path d="M12.5339623,150.309569 C10.4449686,154.16572 12.9356918,157.218507 13.9801887,160.592639 C15.8281447,166.617876 17.8367925,172.562776 19.9257862,178.507676 C20.2471698,179.471714 21.2916667,180.114406 21.7737421,180.998107 C22.2558176,181.881809 22.4165094,182.845846 22.7378931,183.809884 C21.7737421,184.13123 20.8095912,184.693586 19.8454403,184.693586 C16.7119497,184.532913 14.7836478,182.685174 13.4981132,179.953733 C12.4536164,177.784648 11.0073899,175.776236 9.72185535,173.687487 C9.64150943,173.60715 9.4004717,173.526814 9.4004717,173.446477 C10.2039308,167.099895 4.66006289,162.842061 4.0172956,156.977497 C3.77625786,154.888749 2.97279874,152.880336 2.16933962,150.871924 C0.883805031,147.578128 0.482075472,144.445005 1.12484277,140.749527 C1.68726415,137.69674 0.0803459119,134.242271 0.241037736,131.028812 C0.562421384,125.565931 1.76761006,120.183386 2.24968553,114.800841 C2.97279874,105.481809 8.43632075,97.8498423 11.1680818,89.2538381 C11.4894654,88.2094637 12.5339623,87.3257624 13.2570755,86.442061 C13.7391509,85.8797056 14.8639937,85.3173502 14.8639937,84.8353312 C14.622956,79.9348055 19.3633648,78.1674027 21.2113208,74.6325973 C22.3361635,72.3831756 23.8627358,70.3747634 25.2286164,68.2860147 C25.3893082,68.0450053 25.4696541,67.8039958 25.6303459,67.5629863 C31.897327,61.1360673 37.7625786,54.3074658 44.4312893,48.3625657 C51.1803459,42.4176656 58.5721698,37.1957939 65.8836478,31.8132492 C70.1419811,28.6801262 74.4806604,25.4666667 79.2210692,23.217245 C84.1221698,20.8874869 89.5856918,19.762776 94.7278302,17.9953733 C96.4150943,17.4330179 98.0220126,16.308307 99.7092767,15.5852787 C101.235849,14.9425868 102.842767,14.2195584 104.449686,13.8178759 C110.797013,12.2914826 117.14434,11.0060988 123.491667,9.39936909 C126.062736,8.75667718 128.312421,6.98927445 130.883491,6.50725552 C135.784591,5.54321767 140.846384,5.06119874 145.82783,4.49884332 C154.826572,3.45446898 163.744969,2.32975815 172.743711,1.60672976 C179.010692,1.04437434 185.358019,1.12471083 191.705346,0.883701367 C193.553302,0.803364879 195.401258,0.241009464 197.249214,0.40168244 C199.659591,0.562355415 202.150314,1.12471083 204.560692,1.52639327 C205.364151,1.68706625 206.488994,2.24942166 206.810377,1.92807571 C209.542138,-0.562355415 211.711478,2.16908517 214.041509,2.73144059 C214.603931,2.89211356 215.086006,3.77581493 215.568082,4.33817035 C215.00566,4.82018927 214.523585,5.54321767 213.880818,5.70389064 C207.93522,7.55162986 201.909277,7.14994742 196.044025,5.86456362 C189.536006,4.41850683 183.108333,4.82018927 176.600314,5.14153523 C170.895755,5.46288118 165.191195,5.78422713 159.486635,6.42691903 C156.353145,6.74826498 153.3,7.87297581 150.246855,8.35499474 C146.791981,8.91735016 143.176415,8.83701367 139.801887,9.56004206 C135.302516,10.5240799 130.963836,12.1308097 126.464465,13.335857 C124.536164,13.8982124 122.607862,14.1392219 120.67956,14.6212408 C119.394025,14.9425868 118.188836,15.4246057 116.983648,15.8262881 C112.886006,17.2723449 108.708019,18.3970557 104.690723,20.6464774 C100.03066,23.217245 94.4867925,24.0206099 89.2643082,25.6273396 C87.8984277,26.0290221 86.6128931,26.1896951 86.693239,28.4391167 C86.693239,29.4834911 84.845283,30.8492114 83.5597484,31.5722397 C80.4262579,33.3396425 76.8910377,34.4643533 73.8378931,36.392429 C70.3830189,38.6418507 67.4102201,41.5339642 64.1963836,44.1047319 C63.2322327,44.8277603 62.4287736,45.7114616 61.3842767,46.273817 C53.2693396,50.4513144 48.0468553,57.5209253 42.904717,64.6708728 C41.7798742,66.197266 40.3336478,67.8039958 38.7267296,68.5270242 C34.2273585,70.5354364 32.861478,74.8736067 30.5314465,78.4887487 C29.3262579,80.3364879 28.2014151,82.1842271 27.1569182,84.1926393 C25.7910377,86.6830705 21.934434,86.8437434 22.4165094,91.7442692 C22.818239,95.6807571 19.0419811,100.099264 17.0333333,104.276761 C16.7922956,104.839117 15.9888365,105.080126 15.506761,105.562145 C14.8639937,106.124501 12.6946541,117.451945 12.6143082,120.103049 C12.4536164,123.155836 11.2484277,126.208623 10.4449686,129.261409 C10.3646226,129.663091 10.1235849,130.225447 10.2842767,130.38612 C12.6946541,133.519243 12.2125786,136.33102 10.6860063,139.865825 C9.48081761,142.115247 12.9356918,149.506204 12.5339623,150.309569 L12.5339623,150.309569 Z" id="Shape"></path>
                    <path d="M404.943396,184.050894 C401.408176,187.425026 399.56022,191.602524 398.515723,196.422713 C398.033648,198.672135 395.703616,200.439537 394.016352,202.367613 C391.686321,205.099054 389.597327,208.071504 386.865566,210.160252 C385.097956,211.525973 382.125157,212.168665 379.875472,211.927655 C375.054717,211.525973 372.965723,207.830494 374.331604,203.251314 C374.813679,201.564248 375.77783,200.118191 376.17956,198.431125 C377.465094,193.209253 378.589937,187.907045 379.795126,182.685174 C380.116509,181.239117 380.678931,179.873396 380.919969,178.507676 C381.321698,176.5796 381.562736,169.188644 383.410692,167.742587 C385.258648,166.29653 387.18695,164.6898 385.821069,161.637014 C385.499686,160.913985 386.142453,159.548265 386.624528,158.7449 C390.963208,151.514616 390.963208,143.962986 388.713522,136.009674 C386.78522,129.422082 385.901415,122.513144 383.410692,116.166562 C380.839623,109.659306 378.348899,102.670032 371.519497,98.8138801 C370.394654,98.1711882 369.189465,96.002103 369.510849,95.1184017 C370.07327,93.5920084 371.680189,92.3869611 373.126415,91.3425868 C373.447799,91.1015773 374.974371,92.0656151 375.536792,92.7886435 C377.224057,95.0380652 378.830975,97.2874869 380.116509,99.777918 C380.919969,101.304311 380.919969,103.15205 381.402044,104.919453 C381.723428,106.124501 382.044811,107.409884 382.607233,108.534595 C384.214151,111.587382 385.660377,114.800841 387.749371,117.371609 C389.677673,119.701367 392.248742,121.790116 394.980503,123.155836 C398.917453,125.083912 401.408176,127.735016 402.693711,131.832177 C403.49717,134.322608 405.26478,136.652366 405.666509,139.142797 C406.469969,144.686015 406.791352,150.229232 407.03239,155.77245 C407.193082,159.226919 406.309277,162.761725 406.791352,166.135857 C407.273428,169.26898 406.389623,171.759411 405.184434,174.410515 C403.818553,177.543638 404.943396,184.050894 404.943396,184.050894 L404.943396,184.050894 Z" id="Shape"></path>
                    <path d="M136.507704,331.22734 C137.311164,333.95878 138.596698,336.690221 140.444654,338.859306 C142.613994,341.51041 145.506447,343.518822 148.157862,345.768244 C148.318553,345.928917 148.720283,346.009253 148.800629,346.169926 C151.13066,349.785068 153.782075,353.239537 155.790723,357.015352 C157.719025,360.630494 159.647327,364.004627 162.459434,367.13775 C167.199843,372.359621 171.297484,378.143849 175.555818,383.687066 C176.037893,384.329758 176.439623,385.133123 176.439623,385.856151 C176.439623,386.57918 176.037893,387.543218 175.475472,387.864564 C175.154088,388.105573 173.948899,387.623554 173.54717,387.061199 C171.458176,384.249422 169.288836,381.839327 165.271541,383.044374 C164.869811,383.205047 164.066352,382.562355 163.664623,382 C161.254245,378.465195 158.843868,375.010726 156.674528,371.395584 C155.308648,368.985489 154.023113,366.816404 151.693082,364.968665 C149.36305,363.120925 147.675786,360.068139 146.390252,357.256362 C145.667138,355.569295 144.944025,354.444585 143.256761,353.560883 C139.962579,351.793481 137.150472,349.704732 136.186321,345.446898 C135.784591,343.599159 133.293868,342.153102 131.927987,340.466036 C128.553459,336.449211 125.178931,332.432387 122.04544,328.25489 C120.518868,326.246477 121.884748,324.720084 123.732704,323.756046 C125.500314,322.792008 127.107233,320.542587 129.196226,323.193691 C129.437264,323.515037 129.678302,323.836383 129.999686,324.077392 C131.365566,325.04143 136.186321,330.182965 136.507704,331.22734 L136.507704,331.22734 Z" id="Shape"></path>
                    <path d="M31.7366352,199.23449 C33.5042453,200.278864 35.9949686,201.001893 36.8787736,202.528286 C39.3694969,207.187802 41.1371069,212.168665 43.1457547,217.06919 C43.4671384,217.872555 43.5474843,219.318612 44.1099057,219.479285 C48.7699686,221.246688 49.8144654,226.307886 53.1086478,229.280336 C55.3583333,231.288749 55.5993711,233.859516 54.715566,236.590957 C54.4745283,237.474658 54.2334906,238.438696 54.2334906,239.322397 C54.2334906,241.652156 55.9207547,242.776866 57.8490566,241.491483 C59.7773585,240.125762 60.4201258,240.607781 61.3842767,242.455521 C62.6698113,244.865615 64.4374214,247.0347 65.8836478,249.364458 C66.3657233,250.087487 66.7674528,251.131861 66.606761,252.015563 C66.4460692,253.059937 65.8033019,253.943638 65.3212264,254.907676 C64.758805,254.104311 64.0356918,253.381283 63.5536164,252.577918 C62.991195,251.694217 62.8305031,250.167823 62.1073899,249.926814 C55.2779874,247.677392 52.7069182,241.250473 48.368239,236.590957 C48.0468553,236.189274 47.8058176,235.546583 47.4040881,235.305573 C41.2977987,232.333123 40.4139937,226.950578 40.6550314,220.925342 C40.6550314,220.04164 39.0481132,218.595584 37.9232704,218.113565 C31.6562893,215.70347 27.0765723,209.919243 26.8355346,203.492324 C26.7551887,201.403575 28.6834906,199.716509 31.7366352,199.23449 L31.7366352,199.23449 Z" id="Shape"></path>
                    <path d="M205.605189,432.290641 C202.471698,433.254679 200.46305,431.64795 198.293711,429.559201 C192.508805,424.09632 189.696698,416.785699 185.518711,410.439117 C183.911792,408.029022 182.144182,405.699264 180.456918,403.289169 C179.573113,402.003785 178.689308,400.638065 178.126887,399.111672 C177.162736,396.621241 179.814151,393.407781 182.304874,394.211146 C184.233176,394.853838 186.884591,396.219558 187.286321,397.665615 C189.294969,405.7796 196.445755,410.278444 200.302358,417.026709 C201.266509,418.713775 201.989623,420.561514 202.793082,422.328917 C203.034119,422.810936 202.793082,423.694637 203.114465,423.85531 C206.408648,425.944059 206.247956,428.996845 205.685535,432.129968 L205.605189,432.290641 L205.605189,432.290641 Z" id="Shape"></path>
                    <path d="M436.438994,305.358991 C436.11761,308.974132 436.037264,312.669611 435.474843,316.204416 C435.314151,317.088118 434.028616,318.293165 433.064465,318.534175 C431.457547,319.016193 429.529245,319.337539 428.002673,318.935857 C426.797484,318.614511 425.913679,317.007781 424.949528,315.88307 C424.467453,315.401052 424.146069,314.51735 423.663994,314.437014 C420.048428,313.954995 419.646698,310.17918 417.316667,308.331441 C415.629403,306.96572 416.995283,301.824185 419.325314,299.333754 C420.369811,298.28938 421.414308,297.325342 422.539151,296.280967 C424.146069,294.754574 425.592296,294.513565 427.359906,296.280967 C428.565094,297.486015 430.011321,298.610726 431.537893,299.333754 C434.108962,300.619138 435.555189,302.62755 436.438994,305.358991 L436.438994,305.358991 L436.438994,305.358991 Z" id="Shape"></path>
                    <path d="M103.164151,303.350578 C104.449686,301.904522 105.494182,300.137119 107.020755,299.253417 C108.788365,298.28938 109.913208,299.815773 111.118396,301.26183 C115.055346,306.082019 119.313679,310.580862 123.411321,315.240379 C123.81305,315.642061 123.893396,316.284753 124.134434,316.766772 C123.009591,317.088118 121.322327,318.052156 120.920597,317.650473 C118.751258,315.642061 116.662264,314.838696 113.769811,316.043743 C113.287736,316.284753 111.921855,314.437014 111.03805,313.553312 C109.029403,311.464564 106.940409,309.375815 105.092453,307.126393 C104.288994,306.162355 103.96761,304.957308 103.164151,303.350578 L103.164151,303.350578 Z" id="Shape"></path>
                    <path d="M88.9429245,286.078233 C88.4608491,285.033859 88.2198113,284.471504 87.9787736,283.828812 C87.2556604,281.57939 86.693239,279.329968 85.6487421,277.24122 C85.3273585,276.518191 83.8811321,276.357518 82.997327,275.795163 C79.4621069,273.465405 75.0430818,272.099685 73.1147799,267.841851 C72.3113208,266.154784 73.9985849,261.334595 75.6858491,260.932913 C76.5696541,260.691903 78.0962264,261.334595 78.6586478,262.057624 C82.1938679,266.395794 85.8897799,270.653628 88.9429245,275.313144 C90.4694969,277.723239 92.3174528,280.615352 90.6301887,283.909148 C90.308805,284.471504 89.7463836,285.033859 88.9429245,286.078233 L88.9429245,286.078233 Z" id="Shape"></path>
                    <path d="M354.486164,74.3112513 C357.217925,74.3112513 363.806289,78.8904311 364.288365,80.8988433 C364.449057,81.5415352 364.288365,82.826919 363.886635,82.987592 C362.761792,83.4696109 361.154874,84.1926393 360.351415,83.7106204 C357.860692,82.4252366 355.611006,80.7381703 353.441667,78.9707676 C352.718553,78.3280757 352.075786,76.8016824 352.39717,75.9179811 C352.638208,75.1146162 354.004088,74.6325973 354.486164,74.3112513 L354.486164,74.3112513 Z" id="Shape"></path>
                    <path d="M290.209434,33.7413249 C287.075943,33.9823344 285.951101,31.6525762 285.067296,29.4834911 C284.906604,29.1621451 286.272484,27.7964248 286.995597,27.6357518 C288.12044,27.3947424 289.325629,27.7964248 290.450472,28.1177708 C291.736006,28.5194532 294.307075,26.511041 294.146384,29.8851735 C293.985692,32.2952681 292.860849,33.9019979 290.209434,33.7413249 L290.209434,33.7413249 Z" id="Shape"></path>
                    <path d="M304.511006,44.9884332 C304.752044,44.9080967 305.073428,44.7474238 305.314465,44.8277603 C307.644497,45.8721346 306.6,38.8828601 310.376258,42.8193481 C311.90283,44.4260778 314.473899,45.0687697 316.402201,46.3541535 C318.651887,47.7198738 316.562893,48.7642482 315.759434,49.2462671 C314.875629,49.8086225 313.349057,49.9692955 312.384906,49.567613 C311.501101,49.1659306 310.376258,47.5592008 310.617296,46.9165089 C311.340409,44.8277603 310.215566,45.4704522 309.171069,45.3901157 C307.644497,45.3901157 306.037579,45.1491062 304.511006,44.9884332 L304.511006,44.9884332 L304.511006,44.9884332 Z" id="Shape"></path>
                    <path d="M103.806918,293.549527 C102.842767,293.7102 101.958962,294.111882 101.557233,293.870873 C98.9861635,292.183807 96.4150943,290.416404 94.004717,288.488328 C93.6029874,288.166982 93.7636792,286.720925 94.1654088,286.078233 C94.4064465,285.676551 95.852673,285.355205 96.1740566,285.676551 C98.5040881,287.52429 100.673428,289.452366 102.842767,291.460778 C103.244497,291.862461 103.324843,292.424816 103.806918,293.549527 L103.806918,293.549527 Z" id="Shape"></path>
                    <path d="M232.11934,9.9617245 C229.226887,9.47970557 227.057547,9.23869611 224.968553,8.67634069 C224.325786,8.51566772 223.843711,7.55162986 223.361635,6.90893796 C224.004403,6.58759201 224.64717,5.94490011 225.289937,5.94490011 C227.378931,5.94490011 229.628616,6.02523659 231.637264,6.50725552 C232.842453,6.82860147 233.726258,8.03364879 234.770755,8.83701367 C233.726258,9.39936909 232.601415,9.80105152 232.11934,9.9617245 L232.11934,9.9617245 Z" id="Shape"></path>
                    <path d="M341.148742,60.1720294 C341.791509,60.091693 342.75566,59.770347 343.077044,60.091693 C343.960849,60.9753943 344.603616,62.1001052 345.407075,63.1444795 C344.362579,63.8675079 343.398428,64.7512093 342.273585,65.3135647 C341.871855,65.4742376 340.907704,65.0725552 340.505975,64.5905363 C339.381132,63.385489 338.497327,62.0197687 337.533176,60.7343849 C338.738365,60.4933754 339.943553,60.1720294 341.148742,59.93102 L341.148742,60.1720294 L341.148742,60.1720294 Z" id="Shape"></path>
                    <path d="M304.511006,44.9884332 C303.145126,44.5064143 301.618553,44.2654048 300.413365,43.5423764 C299.52956,42.980021 299.047484,41.8553102 298.404717,40.9716088 C299.368868,40.4092534 300.252673,39.7665615 301.216824,39.3648791 C301.939937,39.1238696 302.743396,39.2845426 304.350314,39.2845426 C301.216824,41.7749737 303.707547,43.2210305 304.511006,44.9884332 L304.511006,44.9884332 L304.511006,44.9884332 Z" id="Shape"></path>
                    <path d="M326.204403,55.1911672 C327.088208,56.155205 327.972013,56.7175605 328.052358,57.4405889 C328.132704,58.0029443 327.248899,58.7259727 326.766824,59.3686646 C326.043711,58.8063091 324.999214,58.4046267 324.597484,57.6815983 C324.436792,57.2799159 325.400943,56.315878 326.204403,55.1911672 L326.204403,55.1911672 Z" id="Shape"></path>
                    <path d="M350.308176,73.9095689 C349.102987,73.6685594 347.897799,73.5078864 346.772956,73.266877 C346.933648,72.8651945 347.09434,72.3831756 347.255031,71.9814932 C348.299528,72.6241851 349.263679,73.266877 350.308176,73.9095689 L350.308176,73.9095689 L350.308176,73.9095689 Z" id="Shape"></path>
                    <path d="M252.045126,14.8622503 C251.000629,14.4605678 249.956132,14.1392219 248.911635,13.7375394 C248.991981,13.49653 249.072327,13.175184 249.072327,12.9341746 C250.19717,13.175184 251.322013,13.4161935 252.446855,13.6572029 C252.366509,14.0588854 252.205818,14.4605678 252.045126,14.8622503 L252.045126,14.8622503 Z" id="Shape"></path>
                    <path d="M240.796698,11.4077813 C240.55566,11.6487907 240.314623,11.8898002 240.234277,11.8898002 C239.912893,11.8094637 239.671855,11.5684543 239.430818,11.3274448 C239.591509,11.1667718 239.752201,10.8454259 239.912893,10.9257624 C240.153931,11.0060988 240.475314,11.2471083 240.796698,11.4077813 L240.796698,11.4077813 Z" id="Shape"></path>
                    <path d="M27.5586478,193.209253 C27.397956,193.28959 27.1569182,193.369926 26.9962264,193.450263 C26.9962264,193.209253 26.9158805,192.968244 26.9158805,192.807571 C26.9158805,192.727234 27.2372642,192.646898 27.2372642,192.646898 C27.397956,192.807571 27.4783019,193.04858 27.5586478,193.209253 L27.5586478,193.209253 Z" id="Shape"></path>
                    <path d="M401.32783,440.886646 C401.247484,440.806309 401.167138,440.725973 401.167138,440.645636 C401.167138,440.5653 401.247484,440.484963 401.32783,440.404627 C401.408176,440.484963 401.488522,440.5653 401.488522,440.645636 C401.488522,440.725973 401.408176,440.806309 401.32783,440.886646 L401.32783,440.886646 Z" id="Shape"></path>
                    <polygon id="Shape" points="250.357862 20.244795 250.598899 20.0037855 250.679245 20.3251314"></polygon>
                    <polygon id="Shape" points="317.286006 429.80021 317.20566 429.639537 317.366352 429.719874"></polygon>
                    <polygon id="Shape" points="405.023742 183.970557 405.104088 184.13123 404.943396 184.050894"></polygon>
                </g>
            </g>
        </g>
    </g>
</svg>
