<svg id="Layer_1_Image" data-name="Layer 1 Image" xmlns="http://www.w3.org/2000/svg" viewBox="0 0 1458 1106"><defs><style>.cls-1{stroke:#000;stroke-miterlimit:10;stroke-width:4px;}</style></defs><title>Artboard 1</title><path class="cls-1" d="M464.05,587.92A61.17,61.17,0,0,0,487.78,577c4.38-3.21,9.91-4.86,15-7.15,5.74-2.61,11.5-5.2,17.28-7.72s11.59-5,17.39-7.45l6.37-2.73a5.24,5.24,0,0,1,1.84-.73c10.51.19,21.41-.69,28.69,9.33a9.34,9.34,0,0,1,1.61,4.08c.72,5.25,1.49,10.53-1,15.64a4,4,0,0,0,.25,2.75c1.28,3.4.32,7-2.57,8.81-5.16,3.3-7.81,8.3-9.59,13.92-.45,1.41-1.27,2.77-1.38,4.19-.11,1.6-.1,3.66.79,4.73.58.69,3.22.51,4.32-.22,11.88-7.87,23.48-16.16,35.45-23.89,17.93-11.57,36.08-22.8,54.17-34.12,1.24-.77,2.81-1,4.16-1.65,5-2.41,10.83-3.54,14.28-8.61a3.55,3.55,0,0,1,1.61-1.14q10.58-4,21.19-7.87c.9-.33,2.58-.24,2.72-.71,1.35-4.4,5.28-3.91,8.51-4.78,7.8-2.11,15.51-4.65,23.41-6.26,6-1.23,12.35-2.36,18.29-1.6A26.06,26.06,0,0,1,767.68,534c4.77,6.19,10.1,8.87,18.09,7.27,11-2.21,22.21-3.44,33.29-5.29,4.73-.78,9.35-2.22,14.07-3.1,12.39-2.3,24.73-5.15,37.22-6.46,10.61-1.11,21.4-.51,32.11-.42,6.47.06,12.94.55,19.4,1,4.88.31,9.76.77,14.63,1.26,11.21,1.15,22.42,2.23,33.61,3.57,7.23.87,14.42,2.15,21.62,3.25,9.81,1.49,19.59,3.34,29.45,4.4,10.66,1.15,21.28,2.91,32.18,1.67,4.43-.5,9.13,1.4,13.71,2.17a16.24,16.24,0,0,0,3.46.39c2.33-.11,4.14-2.15,7.16.06,2,1.45,6.15-.23,9.33-.24,8.81,0,17.61.08,26.41.09,5.81,0,11.64.31,17.4-.18,5.35-.45,10.62-1.79,15.93-2.7,1.14-.2,2.29-.29,3.44-.39,6.61-.61,13.22-1.32,19.85-1.77,3.91-.26,7.85-.23,11.77-.1,6,.21,11.91.55,17.85,1a37.42,37.42,0,0,1,7.85,1.1q15,4.39,30,9.18c2.33.74,1.33,2.37,3.51,3.32,8.88,3.88,13.27,10.63,21.25,15,6.11,3.35,12.17,7.26,18.63,9.75,4.81,1.86,14.95,4.63,20,4.13,8.61-.86,17.83.49,24.87-6.88,2.23-2.34,6.5-4.77,9-6.88,3.23-2.72,3.36-4.22,5.75-2.37,1.12,1.87-5.67,9.46-9.88,13.5-3.07,3-3.29,5.75-7.62,5.75-.78,0-5.46,2.09-6,2.88-3.14,3-7.85,3.76-13.12,5.24-8.07,2.27-14.4,2.41-21.48-1-2.72-1.32-6.19-1-9-2.18-9.63-3.88-19-8.22-27.06-15.07a152.46,152.46,0,0,0-12.58-9.65,11.7,11.7,0,0,0-6-2,26.54,26.54,0,0,1-15.32-5.11,3.5,3.5,0,0,0-1.26-.79c-6.46-1.12-12.92-3-19.41-3.09-8.25-.16-16.53,1.1-24.79,1.71a7.27,7.27,0,0,1-3.37-.19c-5.11-2.36-9.84-.35-14.81.66-3.91.79-8.07.38-12.12.39-1.29,0-12.06,2.78-17,3.26-.79.07-9.67,1.17-9.67,1.17a180.4,180.4,0,0,0-24.76-1.86c-8.71.33-15.69,1.22-24.41.69-6.07-.37-13.88-.91-19.83-2.17a48.93,48.93,0,0,0-11.67-1.16c-6,.17-11.86-2.71-17.84-3.6-9.79-1.47-19-6.1-29.33-4.93-1.66.19-3.45-.78-5.17-1.24-3.09-.81-6.13-3.21-9.33-.23a1.2,1.2,0,0,1-.92.28q-6.18-1.31-12.35-2.7a57.27,57.27,0,0,0-5.78-1.42c-6.08-.72-12.18-1.32-18.28-1.86-2.29-.2-4.6-.05-6.91-.12-1.65-.05-3.68.37-4.88-.42-4.89-3.23-10.15-1.77-15-1-6,.92-11.53-.24-17.28-1.14a138.56,138.56,0,0,0-16.8-1.39,6.09,6.09,0,0,0-4.38,1.93c-2.4,3-5.64,3.71-8.93,3.68-5.85-.06-11.81,3-17.61-.48-.41-.25-1.79.45-2.28,1.07-3.28,4.1-6.61,5.09-11,2.47-2.68-1.59-4-1.2-5.59,1.42-.74,1.25-2.83,2.85-3.85,2.58-3.74-1-6.73,1.75-9.81,1.7-8.88-.12-15.8,7.25-24.47,7.25-4.6,0-11.45,2.45-15.67,1-3.5-1.21-8.8-5.69-10.83-8.83-4.7-7.25-7.57-13-16.15-11.49-8.75,1.54-17.76,1.24-26.08,5.33-3.63,1.79-7.92,2.24-11.91,3.31-1,.25-2.44.31-2.73.91-2.27,4.82-7,5.12-11.18,6.55-2,.69-3.8,2-5.71,3-3.65,1.92-7.36,3.76-11,5.75s-7.46,4.2-11.14,6.39c-3.14,1.86-6,3.93-10.15,3.29-2.78-.43-4.92,1-5.59,4.37a7.6,7.6,0,0,1-3,4.06q-8.18,6-16.62,11.54c-8.55,5.64-17.21,11.11-25.81,16.67-1.39.9-2.66,2-4,2.87-1.8,1.16-3.55,2.86-5.52,3.19-3.59.59-6.15,1.71-7.36,5.49-.35,1.09-2.36,1.62-3.55,2.48-2,1.43-3.92,2.91-5.86,4.4-.38.3-.57,1-1,1.1-6.23,2.09-12.41,4.45-18.78,6-3,.74-10.32-5.83-10.38-9-.11-5.94,0-11.74,3.27-17.32,4.6-7.75,9.71-15.37,11-24.73.48-3.49,2.55-6.77,3-10.26.88-6.44-4.15-9.65-10.33-7.7-5.33,1.68-11,2.34-16.5,3.49-1.23.25-2.68.3-3.6,1-3.2,2.45-5.93,5.65-9.38,7.59-2.57,1.44-6,1.27-9,2a25.71,25.71,0,0,0-5.88,2.15c-4.37,2.32-8.52,5.08-12.94,7.28-4,2-7.64,5.25-11.41,7.95a84.5,84.5,0,0,1-11.17,6.25c-.38.14-7.78,2.83-10.69,4.08-3.16,1.37-6.32,2.74-9.36,4.33-3.45,1.81-6.86,3.72-10.13,5.85-8.47,5.51-16.94,11-25.25,16.79-7.3,5-14.43,10.37-21.56,15.66-1.52,1.13-10.19,9.87-12.33,11.59-2.49,2-2.56,5.47-.75,8.7,3.48,6.22,7.11,12.41,10,18.92,4.06,9.21,7.44,18.72,11.23,28.06,1.54,3.8,3.71,7.36,5,11.23,3.41,10,8.66,19.3,9.6,30.1.3,3.5,2.32,6.82,2.88,10.33.44,2.79-.17,5.73-.24,8.61a4,4,0,0,0,.35,2.32c3.81,4.84,3.15,10.71,3.72,16.24.62,6.09.84,12.22,1.22,18.33a8.26,8.26,0,0,1-.1,2c-1.09,5.72-2.37,11.41-3.28,17.16-.86,5.42-1.29,10.91-2,16.35a17.69,17.69,0,0,1-1.34,5.21c-2,4.24-4.3,8.35-2.65,13.31.14.43.12,1.26-.14,1.43-5.33,3.59-3.67,11.16-8.67,15.14-1.21,1-.56,4.25-.78,6.47a16.65,16.65,0,0,1-.37,3.06c-4.58.15-2.51,3.4-2.8,5.62a11.93,11.93,0,0,1-1.44,4.15,59.07,59.07,0,0,1-4.77,7.4,7.78,7.78,0,0,1-4,2.88c-3.49.71-5.19,2.41-4.93,5.93.41,5.45-4.61,11.68-10,12.1-5.18.4-6.39,4.61-7.44,8.21s-2.67,5.95-6.14,7.12c-.59.2-1.41.49-1.6.94-3.31,8.27-10.58,11.72-18,15-.6.26-1.41.4-1.76.87-3.94,5.32-10.49,6.49-15.63,9.88a9.75,9.75,0,0,0-2,1.42c-7.49,8.46-18.09,12.32-27.47,17.76-6.36,3.68-14.35,4.78-21.75,6.4-5.12,1.12-10.54,2-15.7,1.51-9.65-.86-19.56.08-28.92-3.48a77.21,77.21,0,0,0-10.86-3.18c-6.59-1.46-14.55-7.5-18.2-12.24-5.08-6.62-9.16-8.67-13.21-16.55-5.15-4-7-14.27-7.12-21-.42-18.66-.38-31.85,4.25-50,1.22-4.78,3.47-9.28,4.84-14,1.57-5.48,2.49-11.15,4.08-16.62,1.19-4.09,3-8,4.55-12,1.33-3.37,2.72-6.73,4.13-10.08a70.49,70.49,0,0,1,3.4-7.75c5-8.74,9.78-17.63,15.36-26,7.47-11.17,15.55-21.94,23.46-32.81,4.87-6.69,9.7-13.44,15-19.81,3.19-3.87,7.22-7,10.79-10.62a22.26,22.26,0,0,0,2.27-3.18c.94-1.36,1.59-3.28,2.89-4,8.63-4.62,12.54-13.86,19.76-19.85,4.84-4,9.51-8.25,14-12.67,4.72-4.65,8.86-9.9,13.73-14.38,6.07-5.58,12.77-10.47,18.92-16,5.67-5.08,11.18-10.39,16.34-16,2.4-2.6.25-8.28-3.43-12.54-4.86-5.63-9.28-11.59-9.56-19.54a3,3,0,0,0-.92-2.08c-6.52-4.7-10.08-11.56-9.37-18.9.26-2.67-1.4-3.26-3.19-3.53-3.89-.57-6.3-1.61-4.68-6.46.67-2-.36-4.57-.63-6.88l.1-.11c6,.75,8.76,3.42,9.41,9.5.38,3.5,1.65,5.68,5.41,6.73,4.69,1.31,6.27,6,8.32,9.79s3.16,8.34,5.44,12.09c3.75,6.19,8.24,11.93,12.18,18,2.09,3.23,4.29,3.95,7.33,1.5,1.91-1.54,3.8-3.12,5.69-4.69.77-.64,1.48-1.33,2.26-2,5.9-4.67,12.9-7.55,18.36-13.17,4.2-4.32,10.58-6.5,15.93-9.75a35.49,35.49,0,0,0,4.2-3.4c1.87-1.58,3.54-3.51,5.63-4.72,6.24-3.64,12.72-6.86,18.94-10.52,6.69-3.94,13.2-8.2,19.78-12.32ZM217,837c-1.51,2.46-5.58,12.68-6.66,14.14-4.68,6.33-1.33,15.25-6.77,21.43-.4.46.85,2.11.82,3.19-.07,2.72.32,5.83-.84,8.08-3.69,7.12-4.72,14.86-5.51,22.52-.55,5.28.2,10.58-1.27,16-.95,3.51-.95,8,2.69,11a4.92,4.92,0,0,1,1.42,3.05c.56,6.3.41,12.74,4.55,18.13,6.26,5.75,3.7,7.42,6.93,10.18,1,.86,2.48,1.33,3.18,2.36,12.31,3.38,18.06,10.19,20.73,10.63,3.37,3.37,8.5,6.37,19.68,10.65,9.7,1.71,29.71.11,36.05-4.74,4.57-3.5,9.7-6.28,14.67-9.25s10.77-5.36,15.38-9c14.43-11.42,29.23-22.29,41.88-36,8.81-9.53,15.5-20.37,23.07-30.64,4.44-6,7.4-13.39,9.94-20.54,4.18-11.77,9.72-23.14,10-36.18.13-7.13,2.38-14.21,3.34-21.35.44-3.25,0-6.62,0-9.93,0-11.24.07-22.56-2.83-33.48-2.4-9-5.73-17.75-8.63-26.61a26.29,26.29,0,0,0-1.26-4.26c-3.61-6.7-1.62-15-6.08-21.42-.41-.6-.11-1.64-.32-2.43-.52-2-.67-4.28-1.81-5.82-7.11-9.67-13.77-19.52-17.47-31.13-1-3.11-2.9-6-4.6-8.81-2.09-3.51-3.54-3.61-6.69-.87-2.76,2.4-5.56,4.75-8.29,7.18-3.1,2.75-6.19,5.53-9.17,8.4-.63.6-5,4.47-5.73,5.11-5.17,4.59-10.1,9.45-15.09,14.24-1.3,1.24-2.5,2.61-3.84,3.82-4,3.63-8.46,6.88-12,10.92s-6.69,8.07-12,10c-1.83.69-3.05,3.18-4.38,5-1.88,2.53-3,6.41-5.49,7.51-6.07,2.72-7.92,9-12.1,13.14-5.72,5.73-10.6,12.46-16.55,18.16a27.17,27.17,0,0,0-3.12,4.37c-4.77,7-9.3,14.1-14.44,20.78-1.91,2.48-5.26,3.75-4,7.86.22.72-.92,1.92-1.55,2.81-2.94,4.15-6.78,7.92-8.62,12.5A21,21,0,0,1,217,837Z"/><path class="cls-1" d="M84.57,240.13c-2.6,4.76.54,8.65,1.83,12.77q3.51,11.22,7.37,22.33c.4,1.16,1.71,2,2.32,3.1a20.27,20.27,0,0,1,1.16,3.53c-1.2.37-2.42,1.12-3.6,1.05-3.86-.22-6.29-2.46-8-5.92A87.62,87.62,0,0,0,81,269.18c-.08-.13-.38-.22-.37-.31,1-7.87-5.9-13.18-6.7-20.53a30.32,30.32,0,0,0-2.31-7.59,21.55,21.55,0,0,1-1.25-12.57c.73-3.83-1.31-8.1-1.07-12.12.41-6.77,2-13.47,2.49-20.23.94-11.62,7.75-21.11,11.11-31.83.41-1.32,1.65-2.41,2.59-3.53.63-.74,2-1.39,2-2-.32-6.12,5.62-8.26,7.89-12.71,1.41-2.77,3.31-5.29,5-7.93a5.57,5.57,0,0,1,.48-.87c7.76-8,15.09-16.51,23.4-23.91s17.61-13.93,26.65-20.59c5.31-3.9,10.67-7.94,16.56-10.74,6.08-2.89,12.87-4.26,19.29-6.46,2.14-.74,4.07-2.07,6.16-3a36.38,36.38,0,0,1,5.89-2.2c7.89-1.87,15.84-3.45,23.69-5.46,3.15-.81,6-2.95,9.16-3.57,6.12-1.19,12.36-1.82,18.57-2.53,11.15-1.28,22.3-2.66,33.49-3.59,7.83-.65,15.72-.6,23.59-.94,2.31-.1,4.64-.76,6.93-.63a88.78,88.78,0,0,1,9.09,1.4c1,.16,2.36.92,2.77.55,3.43-3.15,6.09.34,9,.95.73.15,1.27,1.28,1.89,2-.69.59-1.3,1.48-2.1,1.72-7.35,2.27-14.88,1.82-22.17.18-8.07-1.82-16.09-1.32-24.15-.89-7.1.37-14.2.84-21.26,1.62-3.89.43-7.67,1.77-11.55,2.37-4.32.67-8.78.59-13,1.53-5.61,1.23-11,3.18-16.58,4.73-2.37.66-4.81,1-7.19,1.64-1.57.41-3.11,1-4.65,1.51-5.14,1.82-10.3,3.23-15.26,6-5.77,3.17-12.73,4.16-19.15,6.16-1.67.52-3.34.74-3.25,3.53,0,1.29-2.26,3.05-3.87,3.93-3.93,2.17-8.34,3.56-12.07,6-4.27,2.79-8,6.39-12,9.63a22.63,22.63,0,0,1-3.53,2.7c-10.09,5.21-16.57,14-23,22.89a14.1,14.1,0,0,1-5.22,4.78c-5.63,2.48-7.31,7.91-10.22,12.44-1.49,2.31-3,4.65-4.25,7.07-1.7,3.14-6.48,3.3-5.9,9.37.48,4.93-4.18,10.38-6.66,15.55-.33.67-1.27,1-1.89,1.58-.84.73-3.45,14.84-3.61,18.14-.17,3.85-1.74,7.63-2.7,11.44-.12.49-.44,1.19-.23,1.45,3,3.86,2.4,7.44.45,11.8C80.76,229.86,85.14,239.08,84.57,240.13Z"/><path class="cls-1" d="M573,282.07c-4.44,4.22-6.66,9.43-8,15.42-.62,2.75-3.55,5.05-5.58,7.43-2.86,3.36-5.48,7.11-8.93,9.73a13.6,13.6,0,0,1-8.72,2.23c-6-.54-8.59-5.06-6.88-10.82.61-2.05,1.81-3.94,2.31-6,1.6-6.52,3-13.09,4.49-19.63.41-1.77,1.05-3.48,1.42-5.24.5-2.42.83-11.64,3.08-13.36s4.72-3.82,3-7.56c-.4-.88.37-2.57,1-3.63,5.45-9,5.4-18.45,2.56-28.28-2.37-8.19-3.46-16.84-6.59-24.69-3.23-8.11-6.28-16.82-14.8-21.64-1.36-.76-2.89-3.45-2.48-4.6.67-1.89,2.72-3.43,4.48-4.71.4-.29,2.35.88,3,1.79a63.47,63.47,0,0,1,5.68,8.71c1,1.9,1,4.25,1.61,6.37a20.91,20.91,0,0,0,1.48,4.51c2,3.76,3.77,7.78,6.45,11a28,28,0,0,0,9,7.18c4.85,2.38,8,5.66,9.55,10.79,1,3.13,3.21,6,3.67,9.12a202.27,202.27,0,0,1,1.71,20.74c.18,4.3-.93,8.71-.31,12.91.57,3.89-.55,7-2,10.28C571.59,274,573,282.07,573,282.07Z"/><path class="cls-1" d="M238.87,465.31a27.5,27.5,0,0,0,4.9,9.49c2.73,3.27,6.35,5.8,9.59,8.65.25.21.69.26.85.51,2.93,4.47,6.16,8.8,8.65,13.51a58.34,58.34,0,0,0,8.28,12.6c5.89,6.47,11,13.69,16.32,20.64a4.91,4.91,0,0,1,1.1,2.71,3.26,3.26,0,0,1-1.2,2.47c-.45.27-1.9-.35-2.35-1-2.58-3.55-5.29-6.5-10.33-5-.49.15-1.54-.64-2-1.25-3-4.37-6.05-8.68-8.7-13.24-1.73-3-3.26-5.72-6.21-8s-5-6.1-6.55-9.63c-.95-2.13-1.76-3.5-3.88-4.61-4.12-2.17-7.64-4.81-8.78-10.07-.51-2.33-3.57-4.06-5.33-6.18-4.17-5-8.39-10-12.3-15.21-1.87-2.49-.16-4.35,2.13-5.61s4.19-4,6.83-.69a5.57,5.57,0,0,0,1,1.09C232.48,457.6,238.47,464,238.87,465.31Z"/><path class="cls-1" d="M108.51,301c2.18,1.33,5.33,2.15,6.36,4.09,3.06,5.79,5.3,12,7.84,18.09.43,1,.49,2.78,1.17,3,5.81,2.23,7.08,8.5,11.19,12.2,2.83,2.55,3.09,5.66,2,9.1a12.21,12.21,0,0,0-.63,3.43c0,2.91,2.12,4.34,4.49,2.67s3.2-1.14,4.42,1.24c1.56,3,3.8,5.67,5.59,8.58a5.52,5.52,0,0,1,.91,3.29c-.17,1.26-1,2.43-1.6,3.64a35.22,35.22,0,0,1-2.21-2.86c-.68-1.08-.94-3-1.8-3.28-8.48-2.75-11.72-10.8-17.14-16.62-.45-.48-.65-1.32-1.18-1.58-7.6-3.74-8.68-10.35-8.36-17.86.05-1.14-2-2.92-3.43-3.47-7.82-3-13.46-10.24-13.76-18.17C102.26,303.67,104.67,301.63,108.51,301Z"/><path class="cls-1" d="M324.94,591.06c-3.91,1.18-6.37-.81-9.1-3.39-7.16-6.77-10.68-15.85-15.94-23.82-2-3-4.24-5.87-6.26-8.87a27.13,27.13,0,0,1-2.9-5.17c-1.19-3.06,2.12-7.14,5.19-6.12,2.36.79,5.72,2.46,6.2,4.35,2.55,10.08,11.43,15.66,16.18,24.07a71.7,71.7,0,0,1,3.07,6.59c.26.59,0,1.66.43,1.9,4.06,2.56,3.89,6.36,3.23,10.35Z"/><path class="cls-1" d="M612.18,433.11c-.36,4.52-.53,9.06-1.2,13.52-.18,1.15-1.79,2.57-3,2.95a11.81,11.81,0,0,1-6.34.46c-1.5-.43-2.57-2.44-3.8-3.77-.56-.61-1-1.75-1.59-1.83-4.48-.62-5-5.26-7.86-7.58-2.07-1.68-.4-8.1,2.5-11.17,1.25-1.32,2.64-2.52,4-3.77,2-1.88,3.84-2.2,6,0a17,17,0,0,0,5.18,3.8A10.62,10.62,0,0,1,612.1,433Z"/><path class="cls-1" d="M197.39,430.55c1.61-1.76,2.9-4,4.84-5.07,2.22-1.25,3.6.65,5.13,2.51,4.88,6,10.18,11.58,15.27,17.36a8,8,0,0,1,.94,1.93c-1.39.4-3.49,1.57-4,1.06-2.69-2.46-5.27-3.51-8.9-2-.61.25-2.31-2-3.43-3.15-2.52-2.62-5.08-5.22-7.44-8C198.83,434.13,198.42,432.63,197.39,430.55Z"/><path class="cls-1" d="M179.66,409.08c-.55-1.27-.93-2-1.19-2.77a77,77,0,0,0-2.88-8.23c-.43-.92-2.2-1.14-3.26-1.84-4.42-2.94-9.89-4.61-12.34-9.93-1-2.1,1.14-8.13,3.19-8.61a4.53,4.53,0,0,1,3.72,1.4c4.44,5.35,9,10.66,12.8,16.47,1.94,3,4.24,6.61,2.14,10.69A23.89,23.89,0,0,1,179.66,409.08Z"/><path class="cls-1" d="M510.19,145.51c3.39,0,11.56,5.69,12.23,8.18.21.8,0,2.37-.52,2.59-1.37.64-3.37,1.5-4.44.94a48.29,48.29,0,0,1-8.59-5.86,4.39,4.39,0,0,1-1.33-3.76C507.88,146.53,509.64,145.91,510.19,145.51Z"/><path class="cls-1" d="M430.21,95c-3.92.26-5.27-2.56-6.44-5.27-.17-.39,1.46-2.12,2.43-2.3a10.2,10.2,0,0,1,4.35.6c1.63.46,4.84-2,4.55,2.2C434.9,93.2,433.47,95.2,430.21,95Z"/><path class="cls-1" d="M448,109c.32-.08.72-.32.95-.22,2.93,1.33,1.57-7.44,6.3-2.54,1.94,2,5.07,2.85,7.55,4.39,2.78,1.73.15,3-.81,3.63a5.19,5.19,0,0,1-4.17.43c-1.06-.47-2.47-2.48-2.2-3.27.91-2.56-.49-1.82-1.84-1.85-1.93,0-3.85-.37-5.78-.57Z"/><path class="cls-1" d="M198.21,418.41c-1.19.18-2.29.72-2.82.38-3.24-2.09-6.43-4.29-9.44-6.69-.47-.38-.28-2.19.2-3a2.61,2.61,0,0,1,2.55-.48c2.89,2.26,5.62,4.73,8.33,7.2C197.47,416.26,197.59,417,198.21,418.41Z"/><path class="cls-1" d="M357.94,65.43c-3.65-.61-6.3-.91-8.86-1.58-.81-.21-1.36-1.41-2-2.15.8-.42,1.62-1.21,2.42-1.19a34.16,34.16,0,0,1,7.91.7c1.46.37,2.62,1.92,3.92,2.95Z"/><path class="cls-1" d="M493.6,127.9c.82-.05,2-.47,2.41-.08a27,27,0,0,1,2.89,3.78,27.15,27.15,0,0,1-3.93,2.66c-.51.24-1.73-.32-2.23-.88-1.36-1.5-2.51-3.19-3.74-4.81l4.53-1Z"/><path class="cls-1" d="M448,109c-1.72-.56-3.59-.85-5.1-1.76-1.1-.65-1.71-2.11-2.55-3.21a20.81,20.81,0,0,1,3.49-2c.88-.31,2-.06,3.85-.06-3.77,3-.7,4.82.31,7Z"/><path class="cls-1" d="M475,121.67c1.09,1.21,2.22,1.93,2.31,2.76s-1,1.6-1.56,2.41c-.94-.69-2.2-1.2-2.68-2.13C472.81,124.27,474.05,123.06,475,121.67Z"/><path class="cls-1" d="M505,145l-4.43-.78.64-1.64L505,145Z"/><path class="cls-1" d="M382.75,71.47,378.8,70.1l.24-1,4.24.89Z"/><path class="cls-1" d="M368.7,67.2c-.32.28-.59.64-.71.59a4.84,4.84,0,0,1-1-.67c.2-.18.44-.55.58-.51A5.84,5.84,0,0,1,368.7,67.2Z"/><path class="cls-1" d="M103.34,293.5l-.73.32a4.53,4.53,0,0,1-.06-.82c0-.07.35-.2.38-.17A5,5,0,0,1,103.34,293.5Z"/><path class="cls-1" d="M568.49,601.79c-.07-.1-.21-.2-.21-.3s.14-.19.22-.28c.08.09.21.19.21.29S568.57,601.69,568.49,601.79Z"/><polygon class="cls-1" points="463.92 588.05 463.84 587.84 464.05 587.92 463.92 588.05"/><path class="cls-1" d="M612.1,433l.08.09Z"/><polygon class="cls-1" points="573.07 281.96 573.16 282.15 572.96 282.07 573.07 281.96"/><path class="cls-1" d="M217,837l-.05,0Z"/></svg>